<svg fill="#000000" viewBox="0 0 100 100" version="1.1" xml:space="preserve" xmlns="http://www.w3.org/2000/svg" xmlns:xlink="http://www.w3.org/1999/xlink"><g id="SVGRepo_bgCarrier" stroke-width="0"></g><g id="SVGRepo_tracerCarrier" stroke-linecap="round" stroke-linejoin="round"></g><g id="SVGRepo_iconCarrier"> <g id="jackhammer"></g> <g id="drilling_machine"></g> <g id="hammer"></g> <g id="measuring_tape"></g> <g id="wrench"></g> <g id="saw"></g> <g id="building"></g> <g id="wall"></g> <g id="crane"> <g> <path d="M43,84h-7V40h2c0.6,0,1-0.4,1-1v-5h36v5c0,0.6,0.4,1,1,1h3v5.5l-12.6,9.7c-0.3,0.3-0.5,0.7-0.3,1.1 c0.1,0.4,0.5,0.7,0.9,0.7h26c0.4,0,0.8-0.3,0.9-0.7c0.1-0.4,0-0.9-0.3-1.1L81,45.5V40h3c0.6,0,1-0.4,1-1v-5h1c0.6,0,1-0.4,1-1v-5 c0,0,0,0,0,0c0,0,0-0.1,0-0.1c0-0.1,0-0.2-0.1-0.2c0,0,0-0.1-0.1-0.1c0-0.1-0.1-0.1-0.1-0.2c0,0-0.1-0.1-0.1-0.1 c-0.1,0-0.1-0.1-0.2-0.1c0,0,0,0,0,0l-59-23c0,0,0,0-0.1,0c-0.1,0-0.1,0-0.2,0C27,4,27,4,26.9,4c0,0,0,0,0,0c0,0,0,0-0.1,0 c-0.4,0-0.8,0.3-1,0.7l-0.1,0.2L15.2,18.4c0,0,0,0,0,0l-8,10c0,0-0.1,0.1-0.1,0.1c0,0,0,0.1-0.1,0.1C7,28.8,7,28.9,7,29v29H5 c-0.6,0-1,0.4-1,1v14c0,0.6,0.4,1,1,1h6c0.6,0,1-0.4,1-1V59c0-0.6-0.4-1-1-1H9V31.9l6.2,7.8c0,0,0,0,0,0c0.1,0.1,0.2,0.1,0.2,0.2 c0,0,0.1,0,0.1,0.1C15.7,40,15.9,40,16,40h2v44h-7c-0.6,0-1,0.4-1,1v10c0,0.6,0.4,1,1,1h32c0.6,0,1-0.4,1-1V85 C44,84.4,43.6,84,43,84z M69.9,55L80,47.3L90.1,55H69.9z M10,72H6V60h4V72z M34,67.3L28.4,62l5.6-5.3V67.3z M27,60.6l-6.6-6.3 l6.6-6.3l6.6,6.3L27,60.6z M20,56.7l5.6,5.3L20,67.3V56.7z M27,63.4l6.6,6.3L27,75.9l-6.6-6.3L27,63.4z M34,72v10.6l-5.6-5.3 L34,72z M28.4,46.7l5.6-5.3V52L28.4,46.7z M27,45.3L21.5,40h11L27,45.3z M25.6,46.7L20,52V41.3L25.6,46.7z M25.6,77.3L20,82.7V72 L25.6,77.3z M27,78.7l5.5,5.3h-11L27,78.7z M38,18h-6.3L28.4,6.6L78.1,26L39,21.1V19C39,18.4,38.6,18,38,18z M29.7,18h-6.3 l3.4-9.7L29.7,18z M23,20h14v2v10H23V20z M83,38h-6v-4h6V38z M85,32h-1h-8H39v-8.9l46,5.7V32z M21.3,18h-3.2l5.8-7.3L21.3,18z M15,21.9v14.3L9.3,29L15,21.9z M17,20h4v13c0,0.6,0.4,1,1,1h15v4h-2H19h-2V20z M42,94H12v-8h7h16h7V94z"></path> <path d="M95,90h-1V63c0-0.6-0.4-1-1-1H67c-0.6,0-1,0.4-1,1v27h-1c-0.6,0-1,0.4-1,1v4c0,0.6,0.4,1,1,1h30c0.6,0,1-0.4,1-1v-4 C96,90.4,95.6,90,95,90z M68,64h24v26h-6V79c0-0.6-0.4-1-1-1H75c-0.6,0-1,0.4-1,1v11h-6V64z M84,90h-8V80h8V90z M94,94H66v-2h1h8 h10h8h1V94z"></path> <path d="M78,75c0.6,0,1-0.4,1-1v-6c0-0.6-0.4-1-1-1h-6c-0.6,0-1,0.4-1,1v6c0,0.6,0.4,1,1,1H78z M73,69h4v4h-4V69z"></path> <path d="M82,75h6c0.6,0,1-0.4,1-1v-6c0-0.6-0.4-1-1-1h-6c-0.6,0-1,0.4-1,1v6C81,74.6,81.4,75,82,75z M83,69h4v4h-4V69z"></path> </g> </g> <g id="barrier_sign"></g> <g id="concept"></g> <g id="shovel"></g> <g id="architecture"></g> <g id="safety_helmet"></g> <g id="worker"></g> <g id="teamwork"></g> <g id="roller_brush"></g> <g id="designs"></g> <g id="trolley"></g> <g id="pick_axe"></g> </g></svg>