<svg version="1.1" id="Uploaded to svgrepo.com" xmlns="http://www.w3.org/2000/svg" xmlns:xlink="http://www.w3.org/1999/xlink" viewBox="0 0 32 32" xml:space="preserve" fill="#000000"><g id="SVGRepo_bgCarrier" stroke-width="0"></g><g id="SVGRepo_tracerCarrier" stroke-linecap="round" stroke-linejoin="round"></g><g id="SVGRepo_iconCarrier"> <style type="text/css"> .duotone_een{fill:0B1719;} .duotone_twee{fill:;} </style> <g> <g> <g> <path class="duotone_een" d="M22,25.5v2c0,0.276-0.224,0.5-0.5,0.5h-6c-0.276,0-0.5-0.224-0.5-0.5v-2c0-0.276,0.224-0.5,0.5-0.5 h6C21.776,25,22,25.224,22,25.5z M28,27.5v-1c0-0.276-0.224-0.5-0.5-0.5h-4c-0.276,0-0.5,0.224-0.5,0.5v1 c0,0.276,0.224,0.5,0.5,0.5h4C27.776,28,28,27.776,28,27.5z M28,24.5v-1c0-0.276-0.224-0.5-0.5-0.5h-4 c-0.276,0-0.5,0.224-0.5,0.5v1c0,0.276,0.224,0.5,0.5,0.5h4C27.776,25,28,24.776,28,24.5z M28,21.5v-1c0-0.276-0.224-0.5-0.5-0.5 h-4c-0.276,0-0.5,0.224-0.5,0.5v1c0,0.276,0.224,0.5,0.5,0.5h4C27.776,22,28,21.776,28,21.5z M7,15.5 c0,0.402-0.275,0.494-0.494,0.5c-0.691-0.018-0.679-0.982-0.006-1C6.776,15,7,14.776,7,14.5V10H6v4.083 C4.439,14.601,4.765,17,6.5,17C7.103,17,8,16.601,8,15.5C8,14.837,7,14.837,7,15.5z"></path> </g> <g> <path class="duotone_een" d="M22,25.5v2c0,0.276-0.224,0.5-0.5,0.5h-6c-0.276,0-0.5-0.224-0.5-0.5v-2c0-0.276,0.224-0.5,0.5-0.5 h6C21.776,25,22,25.224,22,25.5z M28,27.5v-1c0-0.276-0.224-0.5-0.5-0.5h-4c-0.276,0-0.5,0.224-0.5,0.5v1 c0,0.276,0.224,0.5,0.5,0.5h4C27.776,28,28,27.776,28,27.5z M28,24.5v-1c0-0.276-0.224-0.5-0.5-0.5h-4 c-0.276,0-0.5,0.224-0.5,0.5v1c0,0.276,0.224,0.5,0.5,0.5h4C27.776,25,28,24.776,28,24.5z M28,21.5v-1c0-0.276-0.224-0.5-0.5-0.5 h-4c-0.276,0-0.5,0.224-0.5,0.5v1c0,0.276,0.224,0.5,0.5,0.5h4C27.776,22,28,21.776,28,21.5z M7,15.5 c0,0.402-0.275,0.494-0.494,0.5c-0.691-0.018-0.679-0.982-0.006-1C6.776,15,7,14.776,7,14.5V10H6v4.083 C4.439,14.601,4.765,17,6.5,17C7.103,17,8,16.601,8,15.5C8,14.837,7,14.837,7,15.5z"></path> </g> </g> <path class="duotone_twee" d="M17,24v-2.329c0,0,2.9,0.968,2.9,1.214C19.9,23.149,17,24,17,24h4V10h-5v14H17z M20,21.724 c0,0-2.9-0.968-2.9-1.214s2.9-1.214,2.9-1.214V21.724z M20,16.974c0,0-2.9-0.968-2.9-1.215c0-0.248,2.9-1.217,2.9-1.217V16.974z M20,11v1.217c0,0-2.9-0.969-2.9-1.217H20z M17,12.163c0,0,2.9,0.968,2.9,1.217c0,0.248-2.9,1.217-2.9,1.217V12.163z M17,16.92 c0,0,2.9,0.969,2.9,1.214c0,0.246-2.9,1.214-2.9,1.214V16.92z M26.512,4H6.488C6.297,4,6.128,4.128,6.053,4.276l-2,4 C3.886,8.612,4.131,9,4.5,9h22C26.776,9,27,8.776,27,8.5v-4C27,4.224,26.782,4,26.512,4z M5.309,8c0,0,1.379-3,1.691-3 c0.204,0,1.213,3,1.213,3H5.309z M9.374,7.9C9.128,7.9,8.161,5,8.161,5h2.422C10.584,5,9.618,7.9,9.374,7.9z M10.533,8 c0,0,0.966-2.9,1.21-2.9c0.244,0,1.212,2.9,1.212,2.9H10.533z M14.115,7.9C13.87,7.9,12.903,5,12.903,5h2.426 C15.329,5,14.362,7.9,14.115,7.9z M15.276,8c0,0,0.968-2.9,1.214-2.9S17.704,8,17.704,8H15.276z M18.865,7.9 c-0.246,0-1.214-2.9-1.214-2.9h2.428C20.08,5,19.111,7.9,18.865,7.9z M20.026,8c0,0,0.968-2.9,1.215-2.9 c0.248,0,1.217,2.9,1.217,2.9H20.026z M23.62,7.9c-0.248,0-1.217-2.9-1.217-2.9h2.434C24.837,5,23.869,7.9,23.62,7.9z M26,8h-1.217 c0,0,0.969-2.9,1.217-2.9V8z M25,10h1v9h-1V10z"></path> </g> </g></svg>