<?xml version="1.0" encoding="utf-8"?><svg version="1.1" id="Layer_1" xmlns="http://www.w3.org/2000/svg" xmlns:xlink="http://www.w3.org/1999/xlink" x="0px" y="0px" width="122.88px" height="100.094px" viewBox="0 0 122.88 100.094" enable-background="new 0 0 122.88 100.094" xml:space="preserve"><g><path d="M97.124,19.813c-0.268-0.268-0.481-0.429-0.749-0.536c-0.214-0.107-0.482-0.161-0.804-0.161s-0.589,0.054-0.803,0.161 s-0.482,0.268-0.696,0.482l-0.054,0.054l-6.051,6.05c-1.178,1.178-3.052,1.339-4.391,0.375c-0.695-0.428-1.393-0.857-2.195-1.285 c-0.856-0.428-1.66-0.857-2.409-1.231c-0.804-0.375-1.66-0.75-2.517-1.071c-0.75-0.268-1.606-0.589-2.624-0.911 c-1.445-0.482-2.356-1.821-2.356-3.266V9.21c0-0.321-0.054-0.643-0.16-0.856c-0.107-0.214-0.268-0.482-0.482-0.643 c-0.214-0.214-0.428-0.375-0.643-0.482c-0.214-0.107-0.535-0.16-0.856-0.16H57.661c-0.322,0-0.589,0.053-0.803,0.107 c-0.214,0.107-0.482,0.268-0.75,0.536c-0.214,0.214-0.375,0.428-0.428,0.643c-0.107,0.214-0.161,0.535-0.161,0.856v8.514 c0,1.714-1.232,3.106-2.838,3.427c-0.911,0.214-1.767,0.428-2.517,0.643c-0.857,0.268-1.66,0.535-2.517,0.857 c-0.803,0.321-1.66,0.642-2.463,1.071c-0.856,0.375-1.606,0.803-2.356,1.178c-1.392,0.749-2.999,0.481-4.069-0.589l-6.694-6.64 c-0.053-0.054-0.053-0.054-0.053-0.107c-0.215-0.214-0.429-0.375-0.643-0.482c-0.215-0.107-0.429-0.107-0.75-0.107 s-0.589,0.054-0.803,0.161c-0.268,0.107-0.482,0.268-0.75,0.536l-8.139,8.192c-0.268,0.268-0.428,0.482-0.536,0.75 c-0.107,0.214-0.16,0.482-0.16,0.803c0,0.322,0.053,0.589,0.16,0.804c0.107,0.214,0.268,0.482,0.482,0.696v0.054l6.051,6.051 c1.178,1.178,1.338,3.052,0.375,4.391c-0.428,0.696-0.857,1.392-1.285,2.195c-0.428,0.857-0.857,1.66-1.231,2.41 c-0.375,0.803-0.75,1.66-1.071,2.517c-0.268,0.75-0.589,1.606-0.911,2.624c-0.482,1.446-1.821,2.356-3.266,2.356h-9.264 c-0.321,0-0.643,0.053-0.856,0.16c-0.215,0.107-0.429,0.268-0.643,0.429c-0.215,0.214-0.375,0.429-0.429,0.643 c-0.107,0.214-0.161,0.535-0.161,0.856v0.945c-2.356,0.719-4.637,1.771-6.8,3.173v-4.225c0-1.231,0.214-2.356,0.643-3.481 c0.428-1.07,1.124-2.034,1.981-2.944c0.856-0.857,1.874-1.553,2.945-1.981c1.071-0.428,2.249-0.643,3.48-0.643h6.854 c0.054-0.161,0.161-0.375,0.214-0.535c0.375-0.964,0.804-1.928,1.232-2.892c0.482-1.018,0.91-1.981,1.392-2.838l0.161-0.322 l-4.123-4.176c-0.857-0.857-1.553-1.82-1.981-2.945c-0.482-1.125-0.696-2.303-0.696-3.481c0-1.231,0.214-2.355,0.696-3.48 c0.481-1.124,1.124-2.088,1.981-2.945l8.139-8.193v-0.053c0.856-0.857,1.82-1.5,2.891-1.981c1.125-0.482,2.249-0.696,3.481-0.696 c1.231,0,2.409,0.268,3.48,0.696c1.071,0.481,2.034,1.124,2.838,2.034l4.873,4.819c0.161-0.054,0.321-0.16,0.428-0.214 c0.91-0.429,1.874-0.803,2.892-1.231c0.964-0.375,1.981-0.696,2.999-1.018c0.161-0.054,0.268-0.107,0.428-0.107V9.049 c0-1.231,0.215-2.41,0.696-3.48c0.429-1.071,1.125-2.035,1.981-2.891l0.054-0.054c0.856-0.856,1.82-1.5,2.892-1.928 C55.305,0.268,56.483,0,57.661,0h11.673c1.231,0,2.356,0.214,3.48,0.643c1.125,0.429,2.089,1.125,2.945,1.981 s1.553,1.874,1.981,2.945c0.428,1.071,0.643,2.249,0.643,3.48v6.854c0.16,0.054,0.374,0.161,0.535,0.214 c0.964,0.375,1.928,0.804,2.892,1.232c1.017,0.482,1.981,0.91,2.838,1.392l0.321,0.161l4.176-4.123 c0.857-0.857,1.821-1.553,2.945-1.981c1.125-0.482,2.303-0.696,3.48-0.696c1.231,0,2.356,0.214,3.48,0.696l0.001,0.106 c1.124,0.482,2.088,1.125,2.944,1.981l8.192,8.139h0.054c0.857,0.857,1.499,1.821,1.981,2.892c0.481,1.125,0.696,2.249,0.696,3.48 s-0.269,2.41-0.696,3.48c-0.482,1.071-1.124,2.035-2.035,2.838l-4.818,4.873c0.053,0.161,0.16,0.321,0.214,0.482 c0.428,0.911,0.803,1.875,1.178,2.785c0,0.054,0.054,0.107,0.054,0.161c0.375,0.91,0.696,1.927,1.018,2.999l0.106,0.375l5.891,0 c1.231,0,2.409,0.214,3.48,0.696c1.071,0.428,2.035,1.125,2.892,1.981l0.054,0.054c0.856,0.857,1.499,1.82,1.928,2.892 c0.428,1.071,0.695,2.249,0.695,3.427v1.749h-1.669c-2.463-2.256-5.264-4.08-8.325-5.35c-0.237-0.11-0.479-0.213-0.728-0.308 c-4.021-1.531-7.539-2.177-10.685-2.185c-0.111-0.409-0.222-0.826-0.333-1.243c-0.268-0.803-0.535-1.66-0.91-2.57 c0-0.053-0.054-0.107-0.054-0.161c-0.321-0.856-0.643-1.606-0.964-2.356c-0.375-0.803-0.75-1.606-1.178-2.356 c-0.75-1.393-0.482-2.999,0.589-4.07l6.64-6.693c0-0.054,0.054-0.054,0.106-0.054c0.215-0.214,0.375-0.428,0.482-0.643 c0.107-0.214,0.107-0.428,0.107-0.75s-0.054-0.589-0.161-0.803c-0.106-0.268-0.268-0.482-0.535-0.75l-8.192-8.139L97.124,19.813 L97.124,19.813z M27.334,95.706c-4.405,3.344-9.35,5.998-16.611,3.235C6.015,97.156,2.156,93.027,0,87.825 c18.757,8.501,25.473-15.898,3.263-16.633c6.779-8.162,16.777-8.096,24.855-2.11c3.819,2.824,5.967,4.242,8.166,4.861 c1.203,0.356,2.411,0.424,3.938,0.427c5.16,0.018,32.208-0.571,37.683-0.686c10.309-0.202,15.521-16.053,30.184-10.466 c4.708,1.785,8.566,5.914,10.723,11.116c-18.757-8.501-25.473,15.898-3.263,16.633c-6.779,8.162-16.776,8.097-24.854,2.11 c-3.54-2.632-5.775-5.727-12.759-5.531c-4.844,0.206-31.836,0.521-36.692,0.847c-1.93,0.116-3.211,0.307-4.43,0.782 c-2.204,0.841-4.201,2.555-9.412,6.527L27.334,95.706L27.334,95.706z M62.052,34.591c1.768,0,3.534,0.161,5.248,0.535 c1.659,0.322,3.319,0.857,4.979,1.553c1.553,0.696,3.052,1.5,4.444,2.41s2.677,1.981,3.855,3.159 c1.178,1.178,2.249,2.463,3.159,3.909c0.964,1.392,1.767,2.891,2.409,4.444c0.054,0.106,0.054,0.214,0.107,0.268 c0.554,1.338,0.988,2.716,1.303,4.064c-1.53,1.017-2.992,2.128-4.425,3.253h-1.865c-0.055-0.405-0.123-0.81-0.207-1.213 c-0.268-1.232-0.589-2.356-1.018-3.428c-0.054-0.053-0.054-0.106-0.106-0.214c-0.536-1.231-1.125-2.355-1.82-3.373 c-0.696-1.018-1.446-1.981-2.303-2.838c-0.857-0.856-1.821-1.66-2.838-2.302c-1.018-0.696-2.143-1.285-3.374-1.82 c-1.124-0.482-2.356-0.857-3.641-1.125c-1.231-0.268-2.57-0.375-3.909-0.375s-2.624,0.107-3.909,0.375 c-1.231,0.268-2.355,0.589-3.427,1.018c-0.054,0.054-0.107,0.054-0.214,0.107c-1.232,0.535-2.356,1.124-3.374,1.82 s-1.981,1.446-2.838,2.302c-0.857,0.857-1.66,1.821-2.303,2.838c-0.696,1.018-1.285,2.142-1.82,3.373 c-0.482,1.125-0.857,2.356-1.125,3.642c-0.086,0.394-0.155,0.8-0.209,1.213h-6.892c0.087-0.878,0.221-1.748,0.408-2.605 c0.321-1.66,0.857-3.32,1.553-4.979c0.696-1.553,1.5-3.053,2.41-4.444c0.91-1.393,1.981-2.678,3.159-3.909 c1.178-1.178,2.463-2.249,3.855-3.159c1.392-0.964,2.891-1.767,4.444-2.41c0.107-0.053,0.215-0.053,0.268-0.107 c1.553-0.643,3.159-1.125,4.712-1.446c1.713-0.321,3.48-0.535,5.247-0.535H62.052L62.052,34.591z"/></g></svg>