<svg height="200px" width="200px" version="1.1" id="_x32_" xmlns="http://www.w3.org/2000/svg" xmlns:xlink="http://www.w3.org/1999/xlink" viewBox="0 0 512 512" xml:space="preserve" fill="#000000"><g id="SVGRepo_bgCarrier" stroke-width="0"></g><g id="SVGRepo_tracerCarrier" stroke-linecap="round" stroke-linejoin="round"></g><g id="SVGRepo_iconCarrier"> <style type="text/css"> .st0{fill:#f1f1f1;} </style> <g> <path class="st0" d="M283.356,252.949l-27.357-20.07l-27.352-20.071c-10.318-7.574-29.321-15.282-49.585-7.073 c-17.292,7.113-31.157,15.415-42.412,24.332l55.71,40.889c4.949,3.627,6.018,10.58,2.384,15.529 c-3.633,4.95-10.586,6.018-15.536,2.385l-59.136-43.394c-25.274,27.732-31.725,58.021-39.586,76.282 c-3.233,7.514-7.013,18.461-10.92,30.87l33.956,24.92c4.95,3.633,6.018,10.593,2.385,15.542 c-3.627,4.942-10.586,6.011-15.536,2.384l-27.605-20.258c-8.395,29.014-16.317,60.004-19.703,74.605 c-7.861,33.823,3.82,46.647,14.006,54.121c10.193,7.48,25.915,14.774,55.83-2.866c22.408-13.218,87.896-54.254,110.946-74.104 c1.95-1.683,4.114-3.407,6.418-5.19l-56.605-41.538c-4.943-3.633-6.011-10.593-2.384-15.542c3.633-4.943,10.586-6.011,15.536-2.385 l61.707,45.291c23.698-19.443,51.288-49.371,56.445-109.476C306.719,276.339,293.668,260.523,283.356,252.949z"></path> <path class="st0" d="M451.207,132.699c-39.447-0.08-115.955,55.824-140.975,72.755c-21.954,20.024-27.665,6.859-16.238-4.822 c15.796-16.143,29.716-36.902,93.153-70.357c31.826-16.778,42.318-24.426,32.293-35.012c-10.032-10.586-37.596,2.732-30.396-6.172 c7.194-8.916,18.014-41.624,7.728-49.178c-10.28-7.547-38.238,12.583-44.576,22.127c-6.345,9.544-1.91-20.751-15.014-27.143 c-13.098-6.399-17.252,5.917-23.724,41.303c-12.884,70.544-28.512,90.054-39.172,109.971c-7.714,14.4-21.987,12.89-9.471-14.053 c8.657-28.941,39.033-118.687,27.124-156.304c-11.902-37.61-46.994,0.808-38.719,22.916c-25.193-23.95-33.656,16.297-12.296,59.07 c5.183,10.386,15.341,53.646-9.725,101.274l31.705,23.262l31.706,23.27c37.91-38.198,82.232-41.484,93.687-39.654 c47.201,7.541,83.067-12.583,52.664-29.441C464.532,177.769,490.653,132.779,451.207,132.699z"></path> </g> </g></svg>