<svg height="200px" width="200px" version="1.1" id="_x32_" xmlns="http://www.w3.org/2000/svg" xmlns:xlink="http://www.w3.org/1999/xlink" viewBox="0 0 512 512" xml:space="preserve" fill="#000000"><g id="SVGRepo_bgCarrier" stroke-width="0"></g><g id="SVGRepo_tracerCarrier" stroke-linecap="round" stroke-linejoin="round"></g><g id="SVGRepo_iconCarrier"> <style type="text/css"> .st0{fill:#f1f1f1;} </style> <g> <path class="st0" d="M362.52,283.124c13.229,0.369,55.903-5.18,86.724-23.296c-61.625-29.739-119.02-104.774-119.02-104.774 s30.673,4.197,69.838-16.82c-73.28-28.017-144.054-126.775-144.054-126.775s-70.772,98.758-144.07,126.775 c39.181,21.017,69.854,16.82,69.854,16.82s-57.411,75.034-119.02,104.774c30.805,18.115,73.494,23.664,86.724,23.296 C124.283,308.781,65.166,357.995,0,385.225c37.854,23.321,117.79,44.731,199.727,51.92l6.984,63.395h98.594l6.984-63.395 c81.937-7.189,161.857-28.599,199.711-51.92C446.85,357.995,387.717,308.781,362.52,283.124z"></path> </g> </g></svg>