<svg version="1.1" id="_x32_" xmlns="http://www.w3.org/2000/svg" xmlns:xlink="http://www.w3.org/1999/xlink" viewBox="0 0 512 512" xml:space="preserve" fill="#000000"><g id="SVGRepo_bgCarrier" stroke-width="0"></g><g id="SVGRepo_tracerCarrier" stroke-linecap="round" stroke-linejoin="round"></g><g id="SVGRepo_iconCarrier"> <style type="text/css">  .st0{fill:#f1f1f1;}  </style> <g> <path class="st0" d="M43.297,157.656L6.109,262.219C2.406,271.031,0,285.313,0,292.109s0,41.234,0,41.234 c0,11.188,9.156,20.375,20.375,20.375h24.391C47.219,379,68.516,398.75,94.438,398.75s47.234-19.75,49.688-45.031h45.109V139.75 H73.391C62.188,139.75,48.641,147.813,43.297,157.656z M94.438,373.781c-13.781,0-24.969-11.188-24.969-24.969 s11.188-24.938,24.969-24.938c13.797,0,24.969,11.156,24.969,24.938S108.234,373.781,94.438,373.781z M165.797,166.313v79.516 H46.875l23.375-71.609c2.047-3.781,9-7.906,13.281-7.906H165.797z"></path> <path class="st0" d="M217.797,113.25v240.469h147.109c2.422,25.281,23.734,45.031,49.656,45.031 c25.938,0,47.219-19.75,49.703-45.031H512V113.25H217.797z M414.563,373.781c-13.781,0-24.969-11.188-24.969-24.969 s11.188-24.938,24.969-24.938c13.797,0,24.969,11.156,24.969,24.938S428.359,373.781,414.563,373.781z"></path> </g> </g></svg>