<svg fill="#f1f1f1" height="200px" width="200px" version="1.1" id="Layer_1" xmlns="http://www.w3.org/2000/svg" xmlns:xlink="http://www.w3.org/1999/xlink" viewBox="0 0 512 512" xml:space="preserve" stroke="#f1f1f1"><g id="SVGRepo_bgCarrier" stroke-width="0"></g><g id="SVGRepo_tracerCarrier" stroke-linecap="round" stroke-linejoin="round"></g><g id="SVGRepo_iconCarrier"> <g> <g> <circle cx="256" cy="249.081" r="41.514"></circle> </g> </g> <g> <g> <path d="M256,0c-15.285,0-27.676,12.39-27.676,27.676v143.122c8.658-3.062,17.968-4.744,27.676-4.744 c9.707,0,19.017,1.681,27.676,4.744V27.676C283.675,12.39,271.285,0,256,0z"></path> </g> </g> <g> <g> <path d="M184.096,290.595c-4.853-8.406-8.052-17.31-9.731-26.339L50.418,335.817c-13.237,7.643-17.772,24.569-10.131,37.806 c7.641,13.237,24.569,17.772,37.806,10.129l123.947-71.561C195.061,306.223,188.95,299.001,184.096,290.595z"></path> </g> </g> <g> <g> <path d="M461.581,335.817l-123.947-71.561c-1.68,9.029-4.878,17.932-9.731,26.339s-10.965,15.628-17.945,21.597l123.947,71.561 c13.237,7.643,30.164,3.107,37.806-10.129C479.355,360.387,474.819,343.459,461.581,335.817z"></path> </g> </g> <g> <g> <path d="M256,332.108c-9.707,0-19.017-1.681-27.676-4.744V512h55.351V327.365C275.017,330.427,265.707,332.108,256,332.108z"></path> </g> </g> </g></svg>