<svg viewBox="0 0 24 24" id="Layer_1" data-name="Layer 1" xmlns="http://www.w3.org/2000/svg" fill="#000000"><g id="SVGRepo_bgCarrier" stroke-width="0"></g><g id="SVGRepo_tracerCarrier" stroke-linecap="round" stroke-linejoin="round"></g><g id="SVGRepo_iconCarrier"><defs><style>.cls-1{fill:none;stroke:#f1f1f1;stroke-miterlimit:10;stroke-width:1.92px;}</style></defs><path class="cls-1" d="M19.67.5h0a12,12,0,0,1-6,10.59L12,12l-1.67-.91A12,12,0,0,1,4.33.5h0"></path><path class="cls-1" d="M4.33,23.5h0a12,12,0,0,1,6-10.59L12,12l1.67.91a12,12,0,0,1,6,10.59h0"></path><line class="cls-1" x1="19.49" y1="3.38" x2="8.17" y2="3.38"></line><line class="cls-1" x1="18.02" y1="7.21" x2="10.08" y2="7.21"></line><line class="cls-1" x1="13.92" y1="16.79" x2="5.98" y2="16.79"></line><line class="cls-1" x1="15.83" y1="20.63" x2="4.51" y2="20.63"></line></g></svg>