<svg xmlns="http://www.w3.org/2000/svg" shape-rendering="geometricPrecision" text-rendering="geometricPrecision" image-rendering="optimizeQuality" fill-rule="evenodd" clip-rule="evenodd" viewBox="0 0 512 475.32" fill="#FFFFFF"><path d="M397.79 219.79H114.2c-4.85 0-8.95 4.1-8.95 8.95v225.32c0 .75.09 1.48.27 2.18H60.81V174.93c127.52.32 265.98 1.5 393.26.48v280.83h-47.59c.17-.7.27-1.43.27-2.18V228.74c0-4.93-4.14-8.95-8.96-8.95zM262.48 61.51l61.75 53.22h.01l.21.19.21.19.2.2h.01l.19.21.19.21.19.21.17.21h.01l.16.22h.01l.16.22h.01l.15.23.16.23.14.23h.01l.13.23h.01l.13.24.13.24.12.24h.01l.11.25.11.24.11.25.09.25h.01l.08.26h.01l.08.25.08.26.07.26.07.26.06.26.05.26h.01l.04.26.04.27h.01l.03.26.02.27h.01l.02.27.01.26h.01v.27h.01v.54h-.01v.26h-.01l-.01.27-.02.27-.03.26-.03.27h-.01l-.03.27h-.01l-.04.26h-.01l-.05.27-.06.26-.07.26-.07.26-.08.26h-.01l-.08.26-.09.25-.1.26h-.01l-.1.25-.11.25-.12.25-.13.24-.13.25-.14.24-.14.24h-.01l-.14.23h-.01l-.16.24-.16.22-.17.23h-.01l-.17.22h-.01l-.18.23-.1.11h-.01l-.1.12-.1.11h-.01l-.1.12-.11.11-.11.11-.11.1-.11.11-.12.1-.11.11-.12.1-.12.09-.11.1-.12.1h-.01l-.11.09-.12.09h-.01l-.11.09h-.01l-.12.09-.12.08h-.01l-.12.09-.12.08h-.01l-.12.08-.13.07-.13.08-.13.08-.13.07-.13.07-.13.07-.13.07h-.01l-.13.06-.13.06-.13.07h-.01l-.13.06-.14.05-.13.06h-.01l-.13.05-.14.06-.14.05-.13.04h-.01l-.14.05-.14.04-.14.05-.14.04-.14.04-.14.03h-.01l-.13.04h-.01l-.14.03-.14.03-.14.03h-.01l-.14.03-.14.03h-.01l-.14.02-.14.02-.15.02-.14.02-.15.01-.14.02h-.01l-.14.01-.15.01-.14.01h-.01l-.14.01h-.15l-.14.01h-.15v.03H194.81l-.29-.01-.28-.02-.29-.03-.28-.03-.28-.04-.27-.04-.27-.05h-.01l-.27-.06-.26-.07h-.01l-.26-.07h-.01l-.26-.08-.26-.09-.26-.08-.25-.1-.25-.11h-.01l-.24-.1h-.01l-.24-.12-.24-.12H190l-.23-.13-.24-.13-.23-.14-.23-.14-.22-.15h-.01l-.22-.15-.21-.16-.21-.16h-.01l-.2-.17h-.01l-.2-.17-.2-.19-.2-.18-.19-.18-.19-.19-.18-.2-.18-.2-.17-.21-.17-.21-.16-.21-.16-.22h-.01l-.14-.22h-.01l-.14-.22h-.01l-.14-.23-.13-.23-.13-.24h-.01l-.12-.24-.12-.24h-.01l-.11-.25-.11-.25-.1-.25-.1-.26-.09-.26-.08-.26-.08-.26-.07-.27h-.01l-.06-.26-.06-.28-.05-.27-.05-.28-.04-.28-.03-.28-.02-.28-.02-.28-.01-.29v-.29h-.01l.01-.17v-.18l.01-.17v-.17l.02-.17.01-.17.01-.16h.01l.01-.17h.01l.02-.17.02-.16.03-.17.03-.17.03-.16.03-.16.03-.16h.01l.03-.16h.01l.03-.17h.01l.04-.15.04-.16h.01l.04-.16h.01l.04-.16h.01l.04-.15.06-.16.05-.15h.01l.05-.15.06-.15.06-.15h.01l.06-.15.07-.15.06-.15h.01l.07-.14.07-.15.07-.14h.01l.07-.14h.01l.07-.14h.01l.07-.14.09-.14.08-.14.09-.13.09-.14.09-.13.09-.13.09-.13h.01l.09-.13.1-.12.1-.13.1-.12.1-.13h.01l.1-.12.1-.12h.01l.1-.12h.01l.1-.11.11-.12h.01l.11-.11.11-.12h.01l.11-.1.12-.11.11-.11h.01l.12-.11.12-.1.12-.1h.01l.12-.1.13-.1.12-.1h.01l59.35-52.56.2-.18.2-.16.21-.16.2-.16h.01l.2-.15h.01l.21-.15.22-.14.21-.13h.01l.21-.13h.01l.22-.12.22-.12.23-.11.22-.11h.01l.22-.1h.01l.23-.09.23-.09.23-.09h.01l.23-.08.24-.07.24-.07.24-.06.24-.06.24-.05h.01l.23-.05.25-.04.24-.03.24-.03h.01l.24-.03.25-.01.24-.02.25-.01h.49l.24.01h.01l.24.01.24.02h.01l.24.03.24.03.24.03h.01l.24.04.24.04.24.05.24.06.24.06.23.07h.01l.23.07.24.08.23.08.23.09.23.09.23.1.22.1h.01l.22.11.22.11h.01l.21.12h.01l.21.13.22.13.21.13.21.14.21.15.2.15h.01l.2.15.19.17h.01l.19.16zM41.73 184.4H9.54c-5.27 0-9.54-4.27-9.54-9.54v-46.98h.04c0-3.52 1.96-6.89 5.33-8.54L246.07 1.22a9.497 9.497 0 0 1 8.79-.27l251.12 121.89a9.544 9.544 0 0 1 6.02 8.87v43.15c0 5.27-4.27 9.54-9.54 9.54h-29.32v281.38c0 5.26-4.27 9.54-9.54 9.54H51.27c-5.26 0-9.54-4.28-9.54-9.54V184.4zm269.48 225.91h56.74c2.83 0 5.15 2.33 5.15 5.15v24.31c0 2.82-2.34 5.15-5.15 5.15h-56.74c-2.81 0-5.15-2.31-5.15-5.15v-24.31c0-2.84 2.32-5.15 5.15-5.15zM140.12 252.57h56.73c2.84 0 5.16 2.32 5.16 5.15v24.31c0 2.83-2.33 5.15-5.16 5.15h-56.73c-2.83 0-5.15-2.31-5.15-5.15v-24.31c0-2.83 2.32-5.15 5.15-5.15zm0 52.58h56.73c2.84 0 5.16 2.32 5.16 5.15v24.31c0 2.83-2.33 5.15-5.16 5.15h-56.73c-2.83 0-5.15-2.31-5.15-5.15V310.3c0-2.84 2.32-5.15 5.15-5.15zm0 52.58h56.73c2.84 0 5.16 2.32 5.16 5.15v24.31c0 2.83-2.33 5.15-5.16 5.15h-56.73c-2.83 0-5.15-2.32-5.15-5.15v-24.31c0-2.84 2.32-5.15 5.15-5.15zm0 52.58h56.73c2.84 0 5.16 2.32 5.16 5.15v24.31c0 2.83-2.33 5.15-5.16 5.15h-56.73c-2.83 0-5.15-2.31-5.15-5.15v-24.31c0-2.84 2.32-5.15 5.15-5.15zm85.55-105.16h56.73c2.84 0 5.15 2.33 5.15 5.15v24.31c0 2.82-2.33 5.15-5.15 5.15h-56.73c-2.82 0-5.16-2.31-5.16-5.15V310.3c0-2.84 2.32-5.15 5.16-5.15zm0 52.58h56.73c2.84 0 5.15 2.33 5.15 5.15v24.31c0 2.82-2.33 5.15-5.15 5.15h-56.73c-2.82 0-5.16-2.32-5.16-5.15v-24.31c0-2.84 2.32-5.15 5.16-5.15zm0 52.58h56.73c2.84 0 5.15 2.32 5.15 5.15v24.31c0 2.82-2.33 5.15-5.15 5.15h-56.73c-2.82 0-5.16-2.31-5.16-5.15v-24.31c0-2.84 2.32-5.15 5.16-5.15zm85.54-52.58h56.74c2.83 0 5.15 2.33 5.15 5.15v24.31c0 2.81-2.34 5.15-5.15 5.15h-56.74c-2.81 0-5.15-2.32-5.15-5.15v-24.31c0-2.84 2.32-5.15 5.15-5.15z"/></svg>